<svg width="15" height="15" viewBox="0 0 15 15" fill="none" xmlns="http://www.w3.org/2000/svg">
    <g clip-path="url(#clip0_52_8014)">
    <path d="M5.625 3.78281L9.075 1.79062C9.07734 1.79062 9.07734 1.78828 9.07969 1.78828C8.94375 1.51641 8.76563 1.27031 8.55234 1.05703C8.04375 0.548438 7.34062 0.234375 6.5625 0.234375C5.01094 0.234375 3.75234 1.49062 3.75 3.04219C3.75 3.04453 3.75 3.04453 3.75 3.04687V7.03125L5.61797 8.11406L5.625 3.78281Z" fill="#444444"/>
    <path d="M1.76863 8.52092L5.2191 10.5131L7.09082 9.43686L3.3434 7.26514L3.34316 3.28124C3.34434 3.27913 3.34223 3.27795 3.3434 3.27608C3.03988 3.2578 2.73777 3.28897 2.44644 3.36725C1.75176 3.55335 1.12809 4.00522 0.739023 4.67928C-0.0367585 6.02295 0.421913 7.74116 1.76441 8.51881C1.76652 8.51975 1.76652 8.51975 1.76863 8.52092Z" fill="#444444"/>
    <path d="M8.97284 8.82275L5.21839 10.9823L1.76815 8.99057C1.76698 8.98846 1.76487 8.98963 1.7637 8.98775C1.59612 9.24135 1.47214 9.51885 1.39409 9.81018C1.20799 10.5049 1.28745 11.2708 1.67651 11.9449C2.45229 13.2885 4.16956 13.7505 5.5144 12.9766C5.51651 12.9754 5.51651 12.9754 5.51839 12.9742L8.96885 10.9821L8.97284 8.82275Z" fill="#444444"/>
    <path d="M9.37498 11.217L5.92498 13.2092C5.92263 13.2092 5.92263 13.2115 5.92029 13.2115C6.05623 13.4834 6.23435 13.7295 6.44763 13.9428C6.95623 14.4514 7.65935 14.7654 8.43748 14.7654C9.98904 14.7654 11.2476 13.5092 11.25 11.9576C11.25 11.9553 11.25 11.9553 11.25 11.9529V7.96855L9.38201 6.88574L9.37498 11.217Z" fill="#444444"/>
    <path d="M13.2356 6.48135C13.2335 6.48018 13.2335 6.48018 13.2316 6.479L9.78114 4.48682L7.90942 5.56307L11.6568 7.73479V11.7187C11.6557 11.7208 11.6578 11.722 11.6566 11.7238C11.9601 11.7421 12.2622 11.711 12.5536 11.6327C13.2483 11.4466 13.8719 10.9947 14.261 10.3206C15.0368 8.97721 14.5781 7.259 13.2356 6.48135Z" fill="#444444"/>
    <path d="M13.2319 6.0096C13.2331 6.01171 13.2352 6.01054 13.2364 6.01241C13.404 5.75882 13.5279 5.48155 13.606 5.18999C13.7921 4.4953 13.7126 3.72936 13.3236 3.0553C12.5478 1.71163 10.8305 1.24968 9.48567 2.02358C9.48356 2.02475 9.48356 2.02475 9.48169 2.02593L6.03122 4.01811L6.02747 6.17718L9.78192 4.01765L13.2319 6.0096Z" fill="#444444"/>
    </g>
    <defs>
    <clipPath id="clip0_52_8014">
    <rect width="15" height="15" fill="currentColor"/>
    </clipPath>
    </defs>
    </svg>
    